<?xml version="1.0" encoding="UTF-8"?>
<!DOCTYPE svg PUBLIC "-//W3C//DTD SVG 1.1//EN" "http://www.w3.org/Graphics/SVG/1.1/DTD/svg11.dtd">
<!-- Creator: CorelDRAW X8 -->
<svg xmlns="http://www.w3.org/2000/svg" xml:space="preserve" width="2.57658in" height="0.450374in" version="1.1" style="shape-rendering:geometricPrecision; text-rendering:geometricPrecision; image-rendering:optimizeQuality; fill-rule:evenodd; clip-rule:evenodd"
viewBox="0 0 838 147"
 xmlns:xlink="http://www.w3.org/1999/xlink">
 <defs>
  <style type="text/css">
   <![CDATA[
    .fil0 {fill:#171718}
    .fil1 {fill:url(#id0)}
   ]]>
  </style>
  <linearGradient id="id0" gradientUnits="userSpaceOnUse" x1="14.2436" y1="30.9985" x2="143.9" y2="115.503">
   <stop offset="0" style="stop-opacity:1; stop-color:#0080FF"/>
   <stop offset="1" style="stop-opacity:1; stop-color:#00FACA"/>
  </linearGradient>
 </defs>
 <g id="Layer_x0020_1">
  <metadata id="CorelCorpID_0Corel-Layer"/>
  <path class="fil0" d="M310 33l0 -5c0,0 0,0 0,0l-11 0c-1,0 -1,0 -1,0l0 60c0,1 0,1 1,1l11 0c1,0 1,0 1,-1l0 -18c0,-5 0,-10 0,-15 0,-1 0,-3 1,-5 1,-4 2,-9 6,-11 2,-1 5,-1 7,-1 5,0 4,-2 4,-6l0 -4c0,0 0,0 0,0 0,0 0,0 -1,0l-3 0c-4,0 -9,1 -13,4l-2 1zm485 0l0 -5c0,0 0,0 0,0l-12 0c0,0 0,0 0,0l0 60c0,1 0,1 0,1l12 0c0,0 0,0 0,-1l0 -17c0,-6 0,-13 1,-19 0,-2 0,-4 1,-7 0,0 0,0 0,-1 3,-6 8,-7 14,-7 4,1 8,1 10,6 1,2 1,4 1,7 0,6 0,13 0,19l0 19c0,1 0,1 1,1l12 0c0,0 0,0 0,0 0,0 0,-1 0,-1l0 -22c0,-6 0,-12 0,-18 0,-2 0,-4 -1,-6 0,0 0,0 0,-1 -2,-6 -6,-11 -13,-13 -3,-1 -11,-1 -15,0 -2,0 -6,2 -9,4l-2 1zm-62 27l38 0c1,0 1,0 1,0l0 -5c0,-20 -5,-28 -26,-28 -3,0 -6,0 -8,1 -5,0 -9,2 -12,5 -6,6 -6,17 -6,25 0,6 0,11 2,17 2,8 6,12 14,14 5,1 16,1 21,0 7,-2 11,-5 14,-12 0,0 1,-2 0,-3 -2,0 -5,0 -6,0 -2,0 -3,0 -4,0 -1,0 -3,0 -3,0l0 1 0 0c0,1 -3,3 -4,3 -3,2 -11,2 -15,0 -5,-2 -5,-8 -6,-13l0 -5zm0 -8l0 -4c1,-4 1,-8 5,-10 3,-2 6,-2 9,-2 2,0 4,0 7,1 1,1 2,2 2,3 2,2 3,6 3,9l0 3 -26 0zm-99 8l38 0c1,0 1,0 1,0l0 -5c0,-20 -5,-28 -26,-28 -3,0 -6,0 -8,1 -5,0 -9,2 -12,5 -6,6 -6,17 -6,25 0,6 0,11 2,17 2,8 6,12 14,14 5,1 16,1 21,0 7,-2 11,-5 14,-12 0,0 1,-2 0,-3 -2,0 -5,0 -6,0 -2,0 -3,0 -4,0 -1,0 -2,0 -3,0l0 1 0 0c0,1 -3,3 -4,3 -3,2 -11,2 -15,0 -5,-2 -5,-8 -6,-13l0 -5zm23 -20c2,2 3,6 3,9l0 3 -26 0 0 -4c1,-4 1,-8 5,-10 3,-2 6,-2 9,-2 2,0 4,0 7,1 1,1 2,2 2,3zm-83 46c5,3 12,4 17,3 14,0 19,-6 21,-19 1,-4 1,-8 1,-12 0,-4 0,-9 -1,-13 -2,-9 -5,-16 -16,-17 -4,-1 -10,-1 -14,0 -3,0 -6,1 -8,2l-2 2 0 -4c0,0 0,0 0,0l-12 0c0,0 0,0 0,0l0 84c0,1 0,1 0,1l12 0c0,0 1,0 1,-1l0 -14c0,-3 0,-6 0,-9 0,0 0,-1 0,-2l0 -2 1 1zm17 -48c2,0 3,1 5,2 4,3 4,13 4,18 0,6 0,17 -5,20 -4,1 -12,1 -15,0 -1,0 -2,0 -3,-1 -5,-4 -4,-16 -4,-21 0,-5 0,-13 4,-16 0,0 1,-1 2,-1 3,-2 9,-2 12,-1zm-89 -4c-1,-1 -2,-3 -4,-4 -1,-1 -2,-2 -4,-2 -3,-1 -11,-1 -15,0 -3,0 -7,2 -10,4l-2 2 0 -6c0,0 0,0 0,0l-11 0c-1,0 -1,0 -1,0l0 60c0,1 0,1 1,1l11 0c1,0 1,0 1,-1l0 -17c0,-6 0,-13 0,-19 0,-2 0,-4 1,-7 0,0 1,0 1,-1 3,-6 8,-7 14,-7 4,1 7,1 9,6 1,2 1,4 1,7 1,6 1,13 1,19l0 19c0,1 0,1 0,1l12 0c0,0 0,0 0,-1l0 -17c0,-5 0,-9 0,-13 0,-3 0,-5 1,-8 0,-6 3,-10 9,-12 3,-1 9,-1 11,0 2,1 4,3 5,5 1,2 1,5 1,8 0,7 0,13 0,20l0 17c0,1 0,1 1,1l11 0c1,0 1,0 1,-1l0 -20c0,-5 0,-11 0,-16 0,-2 0,-5 -1,-7 -1,-9 -5,-15 -14,-17 -3,-1 -11,-1 -14,-1 -5,1 -10,3 -13,7 -1,0 -1,0 -1,0l-1 1 -1 -1zm-92 -7c-12,2 -17,9 -18,20 -1,4 0,8 0,11 0,4 0,8 0,12 1,6 3,13 10,17 5,2 10,2 15,2 7,0 11,0 17,-2 7,-4 9,-11 10,-18 0,-3 0,-7 0,-11 0,-3 0,-7 0,-11 -2,-10 -5,-16 -15,-19 -3,-1 -7,-1 -10,-1 -3,0 -6,0 -9,0zm15 11c4,2 5,5 6,8 1,5 1,19 0,23 -1,4 -3,8 -7,9 -2,1 -10,1 -13,0 -2,0 -5,-3 -5,-6 -2,-5 -2,-22 -1,-27 2,-4 4,-7 8,-7 2,-1 10,-1 12,0zm-176 22l38 0c0,0 0,0 0,0l0 -5c0,-20 -5,-28 -26,-28 -2,0 -5,0 -8,1 -5,0 -8,2 -11,5 -6,6 -6,17 -6,25 0,6 0,11 1,17 2,8 7,12 14,14 5,1 17,1 21,0 7,-2 12,-5 14,-12 0,0 1,-2 0,-3 -1,0 -4,0 -6,0 -1,0 -3,0 -4,0 0,0 -2,0 -2,0l0 1 0 0c-1,1 -3,3 -4,3 -3,2 -12,2 -15,0 -5,-2 -6,-8 -6,-13l0 -5zm0 -8l0 -4c0,-4 1,-8 5,-10 3,-2 5,-2 8,-2 3,0 5,0 7,1 1,1 2,2 3,3 2,2 2,6 2,9l1 3 -26 0zm451 -24l0 -7 0 -7c0,0 0,0 0,0l-6 -1 -6 0c-1,0 -1,0 -1,0 0,1 0,1 0,1l0 14 -7 0c0,0 0,0 0,0l0 9c0,0 0,0 0,0l7 0 0 16c0,6 0,12 0,18 0,14 13,18 25,16 1,0 1,0 1,0l0 -11c0,0 0,0 0,0 -1,0 -1,0 -1,0 -5,1 -12,0 -12,-7l0 -16 0 -16 12 0c0,0 1,0 1,0l0 -9c0,0 -1,0 -1,0l-12 0zm-351 24l0 -23 0 -21c0,0 0,-1 0,-1l-12 0c0,0 0,1 0,1l0 80c0,1 0,1 0,1l12 0c0,0 0,0 0,-1l0 -18 3 -4c1,-1 2,-2 2,-3l1 -1 1 1c1,1 2,2 2,3 3,3 5,6 7,9l9 13c0,0 0,1 1,1l6 0c2,0 3,0 5,0 0,0 2,0 2,-1 0,-1 -3,-4 -4,-6 -3,-4 -6,-8 -9,-12l-12 -18 1 -1c3,-4 6,-8 9,-12 2,-3 4,-5 6,-8 1,0 3,-3 3,-3 0,-1 -2,-1 -3,-1 -1,0 -2,0 -4,0l-6 0c0,0 0,0 0,0l-20 25zm-162 -21l0 -23c0,0 0,-1 0,-1l-12 0c0,0 -1,1 -1,1l0 80c0,1 1,1 1,1l11 0c0,0 1,0 1,-1l0 -3 2 1c3,2 6,3 10,3 4,1 10,1 14,0 10,-3 12,-10 14,-19 0,-4 0,-8 0,-12 0,-3 0,-7 0,-11 -2,-9 -4,-16 -14,-19 -4,-1 -10,-1 -14,-1 -3,1 -7,1 -10,3l-2 1zm17 7c2,0 5,0 6,2 3,2 4,7 4,11 1,5 1,14 -1,19 0,5 -3,8 -7,9 -2,0 -4,0 -6,0 -3,0 -4,0 -7,-1 -3,-2 -4,-4 -5,-7 -1,-6 -1,-21 1,-27 1,-4 4,-6 8,-6 3,-1 5,-1 7,0z"/>
  <path class="fil1" d="M80 135c12,6 26,11 40,11 11,0 24,-3 31,-12 1,-1 2,-2 3,-4 1,-1 2,-3 3,-5 3,-11 0,-23 -6,-33 -7,-12 -18,-22 -30,-29l-1 0 0 0c0,-14 -3,-29 -10,-41 -5,-10 -14,-19 -26,-21 -1,-1 -3,-1 -5,-1 -2,0 -3,0 -5,1 -12,2 -20,11 -26,21 -7,12 -10,27 -10,41l0 0 0 1c-12,7 -24,17 -31,29 -6,9 -9,22 -5,33 0,1 1,3 2,4 1,2 2,3 3,5 8,9 20,12 31,11 14,0 29,-4 41,-11l0 -1 1 1zm20 -81c-12,-3 -25,-4 -37,-1 -2,1 -3,1 -5,2l-1 0 0 -2c1,-7 3,-14 6,-21 3,-5 8,-11 14,-12 1,0 2,0 2,0 1,0 1,0 2,0 6,1 11,7 14,12 4,7 6,14 6,21l1 2 -2 -1zm19 30c6,5 12,10 15,16 3,5 6,13 4,18 0,1 -1,2 -1,2 0,1 -1,1 -1,2 -4,5 -12,6 -17,6 -8,0 -15,-2 -22,-5l-1 -1 1 -1c2,-2 4,-4 6,-6 7,-8 12,-19 15,-30l0 -2 1 1zm-58 39c-6,3 -14,5 -21,5 -6,0 -14,-1 -18,-6 0,0 -1,-1 -1,-2 0,0 0,-1 -1,-1 -2,-6 1,-13 4,-18 4,-7 9,-12 15,-17l1 -1 1 2c0,3 1,5 2,8 1,4 3,8 6,12 2,4 4,7 7,10 1,2 4,4 6,6l1 1 -2 1zm3 -28c-3,-5 -5,-12 -2,-18 3,-4 8,-6 13,-7 7,-1 17,0 21,7 3,6 1,14 -3,20 -3,4 -8,9 -14,9 -6,0 -12,-5 -15,-11z"/>
  <path class="fil0" d="M694 143c3,0 6,-3 6,-6 0,-3 -3,-6 -6,-6 -3,0 -5,3 -5,6 0,3 2,6 5,6zm44 -12l-8 0c-1,3 -4,5 -8,5 -6,0 -8,-6 -8,-11 0,-6 2,-12 8,-12 4,0 7,2 8,6l8 0c-1,-9 -7,-12 -15,-12 -12,0 -18,6 -18,18 0,11 5,18 17,18 8,0 15,-4 16,-12zm5 -6c0,11 6,18 18,18 12,0 18,-7 18,-18 0,-12 -6,-18 -18,-18 -12,0 -18,6 -18,18zm9 0c0,-7 2,-12 9,-12 7,0 9,6 9,12 0,6 -2,11 -9,11 -7,0 -9,-5 -9,-11zm41 -17l-8 0 0 34 9 0 0 -19c0,-5 1,-9 7,-9 6,0 6,4 6,9l0 19 9 0 0 -19c0,-5 1,-9 7,-9 6,0 7,4 7,9l0 19 8 0 0 -21c0,-2 0,-4 0,-6 -1,-6 -6,-8 -12,-8 -4,0 -9,0 -10,5l-1 2 0 -2c-2,-4 -5,-5 -9,-5 -5,0 -10,0 -12,5l0 3 -1 -7z"/>
 </g>
</svg>
