<?xml version="1.0" encoding="UTF-8"?>
<!DOCTYPE svg PUBLIC "-//W3C//DTD SVG 1.1//EN" "http://www.w3.org/Graphics/SVG/1.1/DTD/svg11.dtd">
<!-- Creator: CorelDRAW X8 -->
<svg xmlns="http://www.w3.org/2000/svg" xml:space="preserve" width="2.11187in" height="2.09963in" version="1.1" style="shape-rendering:geometricPrecision; text-rendering:geometricPrecision; image-rendering:optimizeQuality; fill-rule:evenodd; clip-rule:evenodd"
viewBox="0 0 2104 2092"
 xmlns:xlink="http://www.w3.org/1999/xlink">
 <defs>
  <style type="text/css">
   <![CDATA[
    .fil2 {fill:black}
    .fil3 {fill:#0080FF}
    .fil1 {fill:#00FACA}
    .fil0 {fill:white}
   ]]>
  </style>
 </defs>
 <g id="Layer_x0020_1">
  <metadata id="CorelCorpID_0Corel-Layer"/>
  <path class="fil0" d="M844 1117c-2,11 -7,20 -14,28 -6,8 -14,14 -23,16 -9,1 -18,-2 -25,-7 -9,-6 -15,-16 -18,-27 -1,-3 -1,-6 -1,-9 5,-13 17,-25 29,-31 15,-9 35,-8 47,6 0,0 1,2 2,4 1,2 2,3 3,6 1,4 1,9 0,14zm22 -28c-12,-28 -47,-41 -75,-31 -16,6 -29,16 -39,29 -3,2 -5,4 -7,6 -4,7 -5,14 -5,22l0 0c-1,4 0,8 1,11 1,12 5,23 12,33 18,25 55,36 82,16 25,-18 43,-55 31,-86z"/>
  <path class="fil0" d="M977 1098c0,0 0,0 0,0 1,1 1,2 2,3 2,2 5,5 7,7 1,2 3,3 4,4 -7,4 -12,12 -15,17 -2,-1 -4,-3 -6,-5 -2,-4 -5,-8 -7,-11l0 0c-6,5 -11,9 -16,14 0,2 0,3 1,4 -5,0 -9,1 -13,4 -4,2 -7,7 -10,11 -1,-5 -2,-10 -3,-16 -1,-2 -2,-4 -2,-6 0,0 0,-1 0,-1 -4,-19 -7,-37 -8,-56 -1,-13 21,-16 23,-3 2,12 4,23 6,35 6,-7 13,-13 20,-19 12,-12 25,-24 38,-35 5,-4 12,-5 18,0 5,5 4,13 0,18 -13,12 -26,23 -39,35z"/>
  <path class="fil1" d="M1084 730c-28,-13 -56,-26 -83,-39 -13,-6 -26,-11 -39,-17 -28,45 -88,65 -137,39 -21,-12 -39,-32 -51,-53 -10,-19 -15,-43 -10,-64 5,-22 19,-42 37,-55 24,-19 56,-31 86,-31 11,0 20,2 29,4 5,-8 9,-16 14,-24 10,-19 20,-38 31,-57 14,-23 28,-48 43,-70 -86,-44 -188,-55 -277,-17 -53,22 -97,64 -127,112 -72,112 -60,258 20,363 43,56 109,93 178,106 94,16 200,-9 275,-68 32,-25 60,-57 80,-94 -23,-12 -46,-23 -69,-35z"/>
  <path class="fil2" d="M1018 296c-4,-14 -7,-29 -10,-43 -8,-42 -14,-85 -18,-127 9,-1 17,-2 25,-2 0,0 0,1 0,1 2,28 5,56 9,84 4,28 10,56 13,84 2,11 -16,13 -19,3z"/>
  <path class="fil3" d="M1504 159c14,-1 13,-20 0,-21 -29,-3 -58,0 -86,2 -29,3 -58,6 -87,8 -59,4 -118,5 -177,6 -32,0 -66,-1 -98,4 -8,1 -8,13 0,14 28,4 57,3 86,3 29,1 59,0 88,0 59,-2 117,-5 176,-11 33,-3 65,-4 98,-5z"/>
  <path class="fil3" d="M1303 219c3,-3 2,-8 -1,-11 -8,-6 -18,-3 -27,-2 -8,1 -15,2 -23,2 -16,1 -32,2 -48,3 -7,1 -10,10 -2,11 17,4 33,5 50,5 8,0 16,0 25,-1 9,0 21,1 26,-7z"/>
  <path class="fil3" d="M1510 200c-7,-3 -14,-2 -22,-2 -7,0 -15,0 -23,0 -15,0 -30,1 -46,2 -15,0 -30,1 -46,1 -13,1 -31,0 -42,7 -5,4 -3,10 2,12 6,4 13,4 21,4 7,0 15,-1 23,-1 15,0 30,-1 46,-1 15,-1 30,-1 46,-2 13,-1 32,1 43,-6 5,-4 2,-11 -2,-14z"/>
  <path class="fil3" d="M1344 288c20,0 41,-1 62,-2 20,-1 40,-2 60,-3 21,-1 43,0 63,-4 16,-3 11,-23 -4,-24 -10,0 -21,1 -31,2 -10,0 -20,1 -29,2 -21,1 -42,2 -63,4 -20,1 -40,2 -60,3 -19,1 -42,0 -60,7 -7,3 -4,11 2,13 10,3 21,3 30,3 10,0 20,0 30,-1z"/>
  <path class="fil3" d="M1393 355c11,2 23,0 34,-1 11,-1 22,-2 33,-2 23,-1 45,-2 68,-3 16,0 17,-21 0,-22 -23,0 -45,1 -68,2 -11,1 -22,2 -33,2 -11,1 -24,2 -34,5 0,0 0,0 0,0 -10,3 -12,17 0,19z"/>
  <path class="fil3" d="M1561 441c-10,5 -22,5 -33,6 -10,1 -20,2 -29,3 -21,2 -41,5 -61,7 -12,1 -24,2 -36,4 -9,1 -18,1 -26,2 -1,0 -2,0 -3,0 0,0 -1,0 -1,-1 -1,-7 -3,-14 -5,-22 2,0 4,0 7,-1 7,-1 14,-2 22,-3 13,-1 26,-2 38,-4l63 -7c10,-1 19,-2 29,-3 10,-1 21,-4 31,-2 11,3 14,17 4,21z"/>
  <path class="fil3" d="M1545 468c-12,1 -24,3 -36,5 -5,1 -11,2 -17,3 -6,1 -12,2 -18,4 -6,2 -9,6 -9,11 1,5 6,9 12,9 7,0 14,-1 21,-2 6,-1 11,-2 17,-3 13,-2 25,-4 37,-6 6,-2 10,-8 8,-14 -2,-6 -8,-8 -15,-7z"/>
  <path class="fil3" d="M1568 542c-15,4 -32,5 -48,7 -15,3 -31,5 -46,8 -16,3 -32,6 -48,9 0,0 0,0 0,1l0 0c-8,1 -19,5 -29,6 -1,-8 -3,-16 -5,-24 9,-3 21,-5 29,-7 0,0 1,0 1,0 15,-3 31,-7 46,-9 15,-3 31,-6 46,-8 16,-3 34,-7 51,-6 15,0 18,18 3,23z"/>
  <path class="fil3" d="M1544 578c0,0 -2,-1 -2,0 1,0 1,0 -1,-1 0,0 -1,0 -2,0 -4,-1 -7,0 -11,0 -5,0 -9,0 -13,1 -7,1 -13,2 -20,4 -7,1 -14,4 -21,7 -9,3 -4,15 5,15 11,0 23,-2 34,-4 3,0 5,0 7,-1 3,0 6,0 9,-1 1,0 2,-1 3,-1 -1,0 -1,0 1,0 1,0 2,-1 3,-1 4,-1 6,-2 9,-4 3,-2 6,-5 5,-9 -1,-2 -3,-4 -6,-5z"/>
  <path class="fil2" d="M1602 88c-9,0 -18,0 -27,1 -93,5 -185,10 -278,16 -77,5 -155,10 -232,15 -16,1 -33,2 -50,4 -8,0 -16,1 -25,2 0,-7 -1,-14 -1,-20 -1,-11 -2,-22 -2,-33 -1,-13 -3,-27 5,-38 8,-11 23,-12 36,-13 30,-4 60,-8 91,-10 121,-12 242,-15 364,-10 15,1 29,2 44,3 14,1 28,2 40,11 10,8 16,19 20,30 3,6 5,12 7,19 3,6 5,13 8,20 0,1 0,2 0,3z"/>
  <path class="fil2" d="M1688 572c-1,14 -2,29 -7,42 -10,27 -35,38 -60,47 -18,7 -36,13 -55,17 -9,-5 -19,-11 -29,-23 8,-2 16,-3 24,-5 25,-6 50,-13 73,-25 9,-5 17,-11 20,-21 5,-12 5,-26 6,-38 3,-57 -8,-114 -17,-169 -9,-56 -20,-113 -32,-168 -11,-47 -21,-94 -36,-140 9,-1 18,-1 27,-1 18,55 31,113 43,170 13,59 23,119 32,179 5,30 10,60 11,90 1,15 1,30 0,45z"/>
  <path class="fil1" d="M1238 721c-4,13 -10,26 -16,38 -1,3 -3,6 -5,9 -23,-12 -46,-23 -69,-35 -27,-13 -55,-26 -83,-39 -13,-6 -26,-12 -39,-17 2,-3 4,-6 5,-9 1,-2 2,-4 3,-7 1,-1 1,-2 1,-4 9,-25 9,-53 1,-78 -3,-10 -7,-19 -12,-26 -1,-2 -2,-4 -3,-6 6,-5 13,-11 20,-17 38,-31 75,-64 111,-98 1,-1 3,-3 5,-5 2,2 4,4 6,7 24,23 44,50 59,79 -56,-24 -140,34 -70,86 47,36 108,58 86,122z"/>
  <path class="fil3" d="M1153 393c-1,1 -3,3 -5,5 -36,33 -73,66 -111,98 -7,5 -13,11 -20,17 -8,-12 -19,-21 -32,-27 -2,-1 -5,-2 -8,-3 5,-9 9,-17 14,-25 10,-19 20,-38 31,-57 14,-23 28,-47 43,-70 3,1 5,3 8,4 29,16 57,35 80,58z"/>
  <path class="fil3" d="M114 864c11,-13 35,-18 47,-4 8,10 -1,22 -9,29 -7,7 -16,13 -26,17 -6,2 -12,2 -19,2 -4,-15 -4,-32 7,-44zm168 -70c0,-5 -1,-10 -3,-14 -5,-11 -15,-17 -26,-19 -14,-5 -32,1 -37,16 0,1 0,3 0,4 -9,-6 -19,-10 -29,-13 -24,-6 -49,-3 -72,7 -40,18 -91,73 -61,119 10,15 26,25 43,28 5,9 11,17 19,24 11,10 23,17 36,22 8,3 17,6 24,11 -6,4 -12,9 -15,15 -4,8 -5,17 -4,26 3,17 18,29 35,30 16,1 31,-11 37,-25 5,-9 7,-19 5,-29 -2,-8 -8,-15 -14,-19 -6,-4 -14,-6 -21,-5 -4,0 -7,1 -10,2 -7,-8 -17,-12 -27,-17 -19,-7 -37,-18 -48,-35 24,-4 46,-18 58,-38 13,-23 -6,-44 -30,-46 -22,-2 -43,13 -50,35 -3,10 -3,21 -1,31 -6,-2 -13,-6 -18,-12 -30,-34 10,-78 40,-96 19,-11 41,-16 63,-13 14,3 27,9 39,17 0,1 0,3 1,4 1,6 3,13 7,19 3,7 9,13 17,14 12,2 22,-3 29,-11 3,-2 5,-4 7,-6 7,-7 9,-17 6,-26z"/>
  <path class="fil2" d="M1405 545c0,-1 -1,-2 -1,-3 -5,-27 -10,-54 -15,-81 -2,-8 -4,-17 -5,-25 -1,0 -1,0 -1,-1 -7,-33 -13,-67 -23,-99 -4,-12 -8,-23 -12,-34 -10,0 -19,0 -28,0 10,19 16,40 22,61 6,25 12,51 17,77 2,8 3,15 5,22 0,1 0,1 0,1 5,26 10,52 15,77 8,2 17,4 26,5z"/>
  <path class="fil3" d="M1348 302c-10,0 -19,0 -28,0 -157,-1 -314,2 -471,6 -115,3 -229,8 -343,14 -58,3 -116,6 -174,9 -26,2 -53,4 -79,5 -9,1 -17,2 -25,2 1,-6 1,-12 2,-18 2,-15 5,-29 10,-43 12,-29 34,-50 63,-61 15,-5 30,-8 45,-10 18,-3 37,-5 55,-7 74,-9 148,-15 222,-18 148,-8 297,-5 446,-1 58,2 121,1 177,24 26,10 51,26 70,48 7,9 13,19 19,29 4,6 7,14 11,21z"/>
  <path class="fil2" d="M455 1077c-2,-11 -4,-21 -7,-32 -8,3 -16,5 -23,7 1,6 2,12 4,17 11,52 17,104 19,157 1,53 -3,106 -13,158 -1,10 -2,23 -9,31 -7,8 -19,11 -29,15 -25,8 -50,15 -76,20 -51,11 -103,16 -155,14 -25,-1 -50,-2 -74,-8 -10,-2 -19,-6 -26,-14 -7,-7 -11,-16 -13,-25 -7,-24 -10,-49 -13,-74 -3,-28 -6,-55 -8,-83 -4,-43 -5,-87 -5,-130 -9,1 -18,2 -27,3 0,34 1,67 3,100 3,60 8,120 20,178 5,24 15,47 36,61 22,13 51,15 76,16 57,5 115,2 171,-8 28,-5 56,-12 83,-21 25,-8 54,-15 64,-42 5,-12 7,-25 9,-38 2,-14 4,-29 6,-44 3,-28 5,-57 5,-86 0,-58 -6,-116 -18,-172z"/>
  <path class="fil2" d="M448 1045c-8,3 -16,5 -23,7 -18,5 -35,10 -52,14 -72,17 -144,32 -216,45 -37,6 -74,11 -111,16 -6,1 -13,2 -19,3 -9,1 -18,2 -27,3 0,-8 0,-15 1,-23 0,-19 2,-39 4,-58 0,-3 2,-6 3,-7 1,-2 2,-3 2,-4 16,-23 51,-22 76,-25 30,-4 61,-7 91,-11 61,-8 122,-15 183,-22 14,-2 29,-5 43,-5 13,0 24,6 30,18 5,10 8,22 11,33 0,2 1,4 1,6 1,4 2,7 3,10z"/>
  <path class="fil0" d="M317 263c-1,-1 -2,-1 -2,-1 -1,-1 -2,-1 -3,-1 -2,-1 -4,-1 -5,-1 -2,0 -3,0 -4,0 -2,1 -3,1 -4,1 -6,2 -11,5 -15,8 -3,3 -5,7 -5,11 -1,1 -1,1 -1,2 -1,2 -1,4 -1,6 0,2 0,4 1,6 1,5 4,9 8,11 4,2 8,3 12,4 2,0 5,-1 8,-1 2,-1 5,-2 7,-3 2,-2 4,-4 6,-6 2,-1 4,-4 5,-6 0,-1 1,-3 2,-5 0,-2 1,-4 1,-6 1,-7 -3,-15 -10,-19z"/>
  <path class="fil0" d="M409 276c0,-1 0,-2 -1,-3 0,-2 0,-4 -2,-7 0,-1 -1,-2 -2,-3 0,-1 -1,-1 -1,-1 -1,-2 -3,-4 -5,-6 -2,-1 -4,-1 -5,-2 -2,0 -4,-1 -6,-1 -3,0 -5,0 -8,1 -1,0 -2,1 -2,1 -2,1 -4,1 -5,2 -4,3 -6,5 -8,8 -1,2 -2,3 -2,5 -1,1 -1,1 -1,2 0,0 0,1 0,1 0,0 0,1 0,1 -1,2 -1,4 -1,6 0,4 1,7 3,10 0,1 0,1 1,2 1,1 2,3 3,4 3,3 5,4 9,5 3,2 7,2 11,1 2,-1 4,-1 5,-2 1,-1 2,-1 3,-2 5,-3 10,-9 12,-15 0,0 0,0 0,0 0,-1 1,-2 1,-3 1,-1 1,-3 1,-4z"/>
  <path class="fil0" d="M1056 72c0,-1 0,-1 0,-1 -1,-1 -1,-3 -2,-4 0,-1 -1,-2 -2,-3 0,0 0,0 -1,0 0,-1 -1,-1 -1,-2 -1,0 -1,-1 -2,-1 0,0 0,-1 -1,-1 0,-1 -1,-1 -2,-2 -1,0 -1,-1 -2,-1 -1,-1 -1,-1 -1,-1 -2,-1 -3,-1 -4,-2 -2,0 -3,0 -5,0 0,-1 -1,-1 -1,-1 -2,1 -3,1 -5,1 0,0 -1,0 -1,0 -3,1 -4,2 -6,4 -2,1 -4,3 -5,5 -1,2 -2,4 -3,6 0,2 0,4 0,6 0,2 0,4 1,6 0,0 0,0 0,0 0,1 0,1 0,1 1,1 1,3 2,4 0,0 1,1 1,1 0,1 1,1 1,2 1,1 2,1 3,2 0,0 0,0 0,0 1,1 1,1 2,2 0,0 0,0 0,0 1,0 1,1 2,1 1,1 2,2 4,3 1,0 3,0 4,0 1,0 2,0 4,0 0,0 1,0 1,-1 2,0 3,-1 4,-1 0,0 0,0 0,0 1,-1 3,-1 4,-2 1,0 1,0 2,-1 2,-1 4,-3 6,-5 0,-1 1,-2 1,-3 1,-1 2,-2 2,-3 0,-2 0,-3 1,-5 0,0 0,0 0,0 0,-2 -1,-3 -1,-4z"/>
  <path class="fil0" d="M1121 59c0,-2 -2,-3 -3,-5 -3,-2 -7,-4 -11,-5 0,0 0,0 -1,-1 -2,-1 -5,-1 -8,-1 -2,0 -4,0 -6,1 -3,1 -5,2 -8,4 -2,3 -4,6 -5,10 -2,3 -2,8 -1,11 1,1 1,2 1,3 1,0 1,1 2,2 1,3 3,5 6,7 3,2 8,3 12,3 2,0 4,-1 6,-1 1,0 2,0 3,-1 4,-1 7,-2 10,-5 4,-4 6,-9 6,-14 -1,-3 -1,-5 -3,-8z"/>
  <path class="fil0" d="M86 1074c0,-1 -1,-2 -1,-3 -1,-1 -2,-2 -3,-3 0,-1 -1,-1 -2,-2 0,0 0,-1 -1,-1 -1,-1 -2,-2 -4,-3 -3,-1 -6,-2 -10,-2 -4,0 -6,1 -10,2 0,0 -1,1 -1,1 -2,1 -3,2 -4,3 -1,1 -2,3 -3,4 -1,1 -1,2 -2,4 0,1 -1,3 -2,5 0,1 0,3 0,5 -1,1 0,3 0,5 1,3 3,7 5,9 1,1 3,2 4,3 1,0 1,1 1,1 2,1 4,2 6,3 1,0 2,0 3,0 1,1 1,1 2,1 4,0 6,-1 9,-3 2,-1 4,-3 6,-4 2,-2 4,-4 5,-6 1,-2 2,-3 2,-5 1,-2 1,-4 1,-5 0,-1 1,-2 0,-2 0,-3 0,-5 -1,-7z"/>
  <path class="fil1" d="M331 1194c-6,27 -17,54 -32,78 -7,11 -15,22 -22,33 -7,12 -11,24 -11,37 0,5 -3,8 -7,8 -2,4 -7,6 -11,3 -22,-13 -44,-31 -61,-50 -16,-17 -29,-36 -37,-57 -8,-20 -9,-46 10,-61 20,-14 43,0 57,15 7,7 12,15 17,24 3,-15 10,-29 19,-41 14,-19 36,-36 60,-40 31,-5 23,33 18,51z"/>
  <path class="fil0" d="M513 255c-3,1 -7,1 -11,2 1,-5 2,-10 2,-14 1,-4 1,-7 2,-10 0,-3 1,-7 1,-10 1,0 2,0 3,0 1,0 2,0 3,0 2,-1 4,-1 7,-1 4,0 8,0 12,1 3,1 7,3 8,6 2,2 1,5 0,8 -2,3 -5,5 -7,8 -3,2 -6,3 -9,5 -4,2 -7,4 -11,5zm42 20c-2,-3 -5,-5 -7,-7 -3,-2 -5,-5 -8,-7 -2,-1 -3,-2 -5,-3 4,-2 8,-6 10,-9 6,-6 10,-14 7,-23 -3,-8 -11,-13 -20,-14 -5,-1 -10,-1 -15,0 -2,0 -4,1 -6,2 -2,0 -3,1 -4,1 -1,1 -2,2 -3,3 0,0 0,0 0,0 -2,0 -4,0 -5,2 -4,6 -4,14 -6,20 -1,7 -2,13 -3,20 -1,7 -2,14 -2,20 -1,7 -2,15 0,21 1,6 9,6 11,0 2,-6 1,-13 1,-19 1,-6 1,-11 1,-16 2,-1 3,-1 3,-3 7,-2 15,0 22,-2 0,0 0,0 0,0 1,1 1,1 1,1 2,2 4,4 6,6 3,3 5,5 8,7 2,3 4,5 6,8 1,1 2,2 3,3 0,0 0,1 1,1 0,0 0,1 0,1 1,1 3,2 4,2 4,1 7,-1 7,-5 0,-3 -2,-4 -4,-6 -1,-2 -2,-3 -3,-4z"/>
  <path class="fil0" d="M646 206c-5,0 -11,1 -15,1 -5,0 -10,1 -15,1 -5,1 -10,1 -15,2 -5,0 -10,0 -15,2 0,1 -1,1 -1,2 -2,0 -4,2 -3,4 0,3 -1,5 -1,8 -1,3 -1,6 -1,9 -1,6 -2,12 -2,17 -1,12 -1,24 -4,36 0,3 2,7 5,6 9,0 17,-3 26,-4 8,-2 17,-3 25,-6 5,-1 4,-9 -2,-9 -8,0 -17,2 -26,4 -5,1 -12,2 -17,3 0,-9 2,-19 4,-29 0,0 0,0 0,0 2,2 6,2 9,1 3,0 6,0 9,0 3,-1 6,-1 9,-1 4,-1 8,-1 11,-3 2,-2 1,-7 -1,-8 -3,-1 -7,-1 -10,-1l-8 1c-3,1 -5,1 -8,1 -2,0 -3,1 -5,1 0,0 -1,0 -2,0 0,0 0,0 -1,0 -1,0 -1,0 -2,1l1 -13c1,-3 1,-6 1,-10 0,0 0,0 0,0 4,0 7,0 10,0 5,-1 10,-1 14,-1 5,-1 10,-1 15,-2 4,0 10,0 15,-1 2,-1 4,-3 4,-6 0,-2 -2,-5 -4,-6z"/>
  <path class="fil0" d="M705 229c0,0 0,1 0,2 0,-1 0,1 0,1 0,0 -1,1 -1,1 0,0 0,0 0,0 0,1 0,1 0,2 -1,0 -1,1 -2,2 0,0 0,0 0,0 -1,1 -1,2 -2,2 0,1 -1,1 -1,2 -1,0 -1,0 -1,0 0,0 0,0 0,0 0,0 0,0 -1,0 -2,2 -5,4 -8,5 -3,2 -6,3 -10,4 -1,1 -2,1 -3,1 0,0 -2,1 -2,0 0,1 -1,1 -1,1 0,-1 0,-1 0,-1 2,-7 4,-13 5,-20 0,-3 1,-7 1,-11 4,-1 9,-3 13,-2 3,0 5,1 7,2 2,1 3,3 5,5 0,0 0,1 0,1 0,1 1,1 1,2 0,0 0,0 0,1l0 0zm-6 -23c-8,-2 -18,-1 -25,4 -1,0 -2,0 -3,1 0,0 0,1 -1,1 0,1 -1,1 -1,2 -2,2 -2,4 -1,6 -1,3 -1,7 -2,11 -1,6 -3,13 -5,19 -2,7 -4,13 -6,19 -2,6 -7,16 -1,20 2,3 6,3 8,-1 2,-2 1,-6 2,-9 1,-3 2,-6 3,-9 0,-1 1,-3 1,-4 1,0 3,0 4,0 5,-1 10,-2 15,-4 8,-3 17,-7 23,-14 6,-6 10,-15 7,-24 -2,-9 -9,-15 -18,-18z"/>
  <path class="fil0" d="M791 256c-4,3 -9,4 -14,6 -10,3 -24,4 -29,-5 -3,-6 -1,-13 1,-19 0,-1 0,-3 1,-4 4,-2 7,-6 11,-8 4,-3 9,-4 13,-4 10,2 17,10 18,20 1,5 2,10 -1,14zm9 -33c-4,-6 -11,-11 -18,-13 -9,-2 -18,-1 -25,3 -1,1 -2,1 -3,2 -1,0 -1,0 -2,0 -4,2 -7,4 -9,8 -3,3 -4,7 -6,10 -3,8 -6,18 -3,26 3,8 9,13 16,16 8,4 17,3 25,2 7,-2 16,-4 22,-9 8,-5 11,-13 10,-22 0,-8 -2,-16 -7,-23z"/>
  <path class="fil0" d="M881 273c0,0 0,0 0,0 0,0 0,0 0,0 0,0 0,0 0,0z"/>
  <path class="fil0" d="M840 254c-1,0 -2,0 -3,0 0,0 0,-1 0,-1 1,-5 2,-10 3,-15 1,-5 1,-10 1,-15 8,-1 16,-3 24,0 6,2 10,7 8,14 -4,7 -13,11 -20,13 -4,2 -9,3 -13,4zm43 21c0,0 0,0 0,0 0,0 0,0 0,0 0,0 -1,-1 -1,-1 0,0 -1,0 -1,0 0,-1 0,-1 0,-1 0,0 0,1 0,0 0,0 0,0 0,0 0,0 -1,0 -1,0 0,0 0,0 1,0 0,0 -1,-1 -1,-1 0,0 0,-1 -1,-1 0,-1 -1,-2 -2,-3 -1,-2 -3,-4 -4,-6 -1,-1 -2,-2 -2,-3 -1,-1 -1,-1 -2,-2 0,0 0,0 0,0 2,-2 4,-3 6,-5 7,-6 12,-15 10,-24 -2,-8 -10,-14 -17,-16 -11,-3 -22,0 -31,5 -1,1 -1,1 -2,1 -2,0 -4,1 -5,4 -1,5 -1,10 -2,15 -1,5 -2,9 -3,14 0,2 0,3 -1,5 -2,1 -3,5 -1,7 0,1 0,1 0,1 0,0 -1,1 -1,2 0,5 -2,11 0,16 2,5 9,5 11,0 1,-5 1,-10 2,-15 0,0 0,0 0,0 0,0 1,0 1,0 5,-1 10,-2 14,-3 4,-1 7,-2 10,-3 1,1 1,2 1,4 1,1 2,2 2,3 2,2 3,5 4,7 2,2 3,4 4,6 1,1 2,2 3,3 2,2 4,2 6,3 3,0 6,-2 6,-5 0,-1 0,-2 0,-3 0,-2 -1,-3 -3,-4z"/>
  <path class="fil0" d="M966 214c-4,-3 -11,-2 -15,-2 -6,-1 -11,-1 -16,-1 -5,0 -10,1 -15,1 -5,0 -11,0 -16,1 -6,1 -6,11 0,12 5,1 10,1 15,1 2,0 3,0 4,0 -1,3 -1,7 -2,10 -1,4 -2,9 -2,13 -1,5 -2,10 -2,15 -1,5 -2,10 -1,15 1,3 4,5 7,5 3,0 5,-2 6,-5 2,-4 2,-10 2,-14 0,-5 1,-9 1,-13 0,-5 1,-9 1,-13 0,-4 -1,-9 0,-13 0,0 0,0 0,0 0,0 1,0 1,0 5,1 10,1 15,1 5,-1 11,0 15,-2 6,-2 6,-8 2,-11z"/>
  <path class="fil2" d="M1779 1456c-8,-32 -16,-65 -24,-97 -2,-6 -3,-13 -5,-20 -3,-13 -7,-26 -10,-39 3,-7 6,-13 9,-19 3,-7 6,-13 9,-20 3,14 7,27 10,41 13,49 25,98 36,147 4,16 -21,23 -25,7z"/>
  <path class="fil2" d="M1797 1644c-25,24 -57,39 -91,45 0,1 -1,1 -2,1 -7,1 -14,2 -22,3 -11,1 -22,1 -33,0 -8,-1 -15,-2 -23,-4 2,-4 4,-8 6,-11 1,-4 3,-7 4,-11 8,1 16,2 23,2 15,0 30,-1 45,-5 54,-12 105,-52 109,-111 2,-25 -4,-52 -20,-72 -12,-14 -36,-30 -55,-23 -5,4 -10,7 -16,10 -12,5 -20,-13 -12,-21 4,-3 7,-5 11,-7 7,-7 10,-17 9,-28 0,-8 -2,-16 -6,-23 -4,-8 -9,-16 -14,-23 -1,0 -2,-1 -2,-2 -10,-13 -20,-27 -33,-37 -13,-11 -30,-14 -47,-16 -15,-1 -31,-2 -46,-6 -16,-5 -29,-14 -39,-28 -16,-21 -20,-46 -22,-71 -1,-9 -2,-18 -4,-27 -1,-7 -2,-14 -4,-20 -13,-47 -46,-87 -88,-112 -43,-26 -93,-33 -142,-22 -7,2 -14,4 -20,6 -1,0 -1,0 -2,0 -27,10 -52,25 -73,43 -8,7 -15,13 -21,21 -8,8 -16,18 -23,27 -4,6 -9,13 -13,20 -2,3 -6,4 -9,3l0 0c-5,0 -9,-4 -7,-10 1,-4 3,-7 4,-11 6,-12 12,-23 20,-33 6,-9 14,-17 22,-25 31,-31 73,-53 115,-64 61,-15 126,-2 178,35 25,18 47,40 63,67 4,7 8,14 11,20 5,13 9,26 12,39 2,12 4,23 6,36 3,30 8,70 43,81 32,10 67,3 96,23 14,10 25,23 35,36 1,1 1,1 1,2 6,7 12,15 17,22 5,8 9,15 12,24 6,15 7,32 3,46 7,1 14,3 21,6 11,4 21,10 30,18 2,2 4,5 6,7 45,52 34,133 -13,180z"/>
  <path class="fil2" d="M1132 1133c1,4 -1,9 -4,10 -2,1 -4,2 -6,2l0 0c-5,1 -10,1 -14,2 -5,0 -10,0 -15,1 0,0 0,0 0,0 0,0 0,0 0,0 -1,0 -2,0 -3,0 -2,1 -4,1 -6,2 0,0 -1,0 -1,0 0,0 0,0 -1,1 0,0 0,0 -1,0 0,0 -1,1 -1,1 0,0 -1,1 -1,1 0,0 0,0 0,0 0,0 -1,1 -1,1 0,1 0,1 0,1 0,1 0,3 0,3 1,5 2,7 5,12 2,5 5,10 7,14 1,2 2,3 3,5 2,3 4,6 6,9 0,0 0,0 0,0 0,0 0,0 0,0 2,5 2,11 -3,14 -1,1 -2,2 -3,2 -4,1 -8,1 -11,-3 -3,-3 -6,-7 -9,-11 -1,-2 -2,-4 -3,-5 -3,-6 -6,-12 -9,-17 -6,-12 -10,-26 -1,-38 6,-9 16,-13 27,-14 5,-1 11,-1 17,-2 3,0 6,0 9,0 2,0 4,0 6,0 2,0 4,0 6,1 4,1 7,4 7,8z"/>
  <path class="fil2" d="M1213 1363c0,7 -2,12 -5,15 -5,5 -12,6 -19,7 -12,0 -25,-3 -34,-6 -1,0 -2,0 -3,0 -24,-8 -49,-19 -68,-37 -14,-13 -22,-30 -26,-47 -2,-5 -2,-11 -3,-16 0,-1 0,-1 0,-2 0,-1 0,-2 0,-3 0,-2 0,-4 0,-7 0,-23 7,-47 19,-67 1,-2 3,-5 4,-7 4,-7 11,-7 15,-4 3,2 5,5 6,9 0,0 0,0 0,0 0,2 0,4 -1,6 -2,3 -3,6 -5,10 0,0 0,0 0,0l0 0c-3,8 -6,17 -8,25 -2,9 -4,18 -4,26 -1,10 0,19 3,28 3,9 7,18 15,26 13,15 32,25 51,32 11,3 22,6 33,8 2,0 4,0 6,0 2,1 4,1 5,1 2,-1 4,-1 6,-1 0,0 0,0 1,0 4,-4 12,-3 12,4z"/>
  <path class="fil2" d="M1134 1200c-2,-1 -4,-1 -6,-1 -2,1 -3,1 -2,1 -1,1 -2,1 -3,1 -1,1 -1,1 -2,1 1,0 1,0 0,0 -2,1 -3,2 -5,2 -2,2 -4,3 -6,4 -2,0 -3,1 -4,1 0,0 -1,1 -2,1 -4,2 -9,3 -13,5 -5,2 -11,3 -16,6 -3,2 -5,7 -4,11 1,4 5,7 9,7 6,1 12,-1 17,-3 6,-1 11,-3 16,-6 5,-2 9,-5 14,-8 2,-1 4,-3 7,-5 1,-2 2,-3 3,-4 1,-2 2,-4 2,-6 0,-3 -3,-7 -5,-7z"/>
  <path class="fil2" d="M1190 1116c-1,-1 -1,-2 -2,-3 -1,-1 -1,-2 -2,-2 -1,-1 -2,-2 -3,-2 -2,-1 -3,-1 -5,-1 0,0 -2,1 -2,1 -1,0 -1,0 -1,0 -1,0 -2,1 -3,1 0,0 0,0 0,0 -1,1 -2,2 -3,2 -1,1 -2,2 -2,4 -1,1 -1,2 -2,3 0,1 0,1 0,2 -1,0 -1,1 -2,1 -1,2 -1,3 -2,5 0,0 0,1 -1,2 0,2 0,3 0,5 1,1 1,2 2,2 0,1 1,2 2,2 1,1 3,1 4,1 2,0 4,0 6,0 1,-1 3,-2 5,-3 1,-1 3,-2 4,-4 1,-1 2,-2 3,-3 0,0 0,-1 1,-1 -1,0 -1,1 -2,2 1,-2 2,-3 3,-4 1,-1 1,-3 2,-3 0,-2 0,-3 0,-4 0,-1 0,-2 0,-3z"/>
  <path class="fil2" d="M1214 1106c0,0 0,0 0,0 0,0 0,0 0,0 0,0 0,0 0,0z"/>
  <path class="fil2" d="M1203 1090c0,0 0,0 0,0 0,0 0,0 0,0 0,0 0,0 0,0z"/>
  <path class="fil2" d="M1234 1112c0,-1 0,-3 0,-4 -1,-2 -1,-3 -2,-5 -1,-4 -3,-9 -6,-13 -2,-3 -5,-7 -8,-9 -3,-3 -7,-5 -11,-6 -1,-1 -2,-1 -3,0 -1,0 -2,-1 -1,-1 -1,0 -2,0 -3,0 -1,0 -3,0 -5,1 -2,0 -4,3 -4,5 0,3 2,5 4,6 1,0 1,0 2,0 0,0 1,1 1,1 0,0 1,0 1,0 0,0 0,0 0,0 1,1 1,2 2,2 1,0 1,1 2,1 0,0 0,0 0,0 0,0 0,0 0,0 0,0 0,0 0,0 1,1 0,1 0,0 0,0 0,1 0,1 2,1 3,2 4,3 0,1 1,1 1,2 0,0 0,0 0,0 0,0 1,0 1,0 1,2 1,3 2,5 1,1 2,2 3,4 0,0 0,1 0,1 0,0 0,0 0,0 0,0 0,0 0,0 0,0 0,0 0,0 0,1 0,1 0,0 0,1 1,2 1,2 1,5 3,11 7,13 1,0 1,0 1,0 1,2 4,2 6,1 2,-1 3,-2 4,-4 1,-2 1,-4 1,-6z"/>
  <path class="fil2" d="M1296 1241c1,-1 1,-1 -2,0 -2,0 -3,0 -5,-1 -2,-1 -4,-3 -6,-5 0,0 0,0 0,0 -4,-3 -7,-6 -10,-9 -7,-8 -12,-17 -17,-26 -9,-18 -14,-37 -16,-57 -2,-24 1,-48 7,-71 3,-11 6,-22 11,-32 1,-3 2,-6 3,-9 4,-6 7,-11 14,-15 6,-4 11,4 8,9 0,1 0,1 0,1 -6,8 -8,19 -11,27 -3,10 -5,19 -7,29 -4,20 -6,40 -3,61 1,16 6,33 14,48 4,7 9,14 14,21 3,3 6,6 9,10 1,1 3,3 4,4 0,0 0,1 0,1 0,2 1,5 1,4 3,5 -2,12 -8,10z"/>
  <path class="fil2" d="M1311 1237c-3,7 -9,11 -15,15 -6,4 -12,8 -18,12 -12,8 -22,18 -31,28 -18,20 -29,46 -26,73 1,5 -4,11 -8,12 -2,0 -4,0 -5,1 -7,2 -13,4 -19,7 -22,9 -42,24 -59,40 -22,19 -38,45 -22,73 1,3 1,6 0,9l0 0c-1,4 -6,7 -10,7 -3,0 -5,-1 -7,-3 -28,-29 -9,-73 16,-97 13,-14 29,-25 45,-35 0,-1 0,-1 0,-1 12,-7 24,-14 37,-19 3,-1 5,-2 8,-2 0,-29 12,-56 30,-77 11,-13 23,-23 36,-32 7,-5 13,-9 20,-13 0,0 1,0 1,-1 6,-3 12,-7 19,-7 1,0 2,0 2,0 6,1 8,5 6,10z"/>
  <path class="fil2" d="M900 1485c-5,14 -28,8 -23,-6 11,-29 18,-59 15,-90 -2,-26 -17,-50 -20,-76 -1,-4 -1,-8 -2,-12 -1,-9 -2,-19 -5,-28 -3,-10 -9,-19 -19,-22 -12,-3 -10,13 -10,20l0 1c0,9 0,19 0,28 0,5 1,10 1,16 1,13 2,27 2,41 0,12 -1,25 -10,34 -3,3 -6,3 -9,1 -2,-1 -4,-4 -3,-8 1,-4 2,-9 2,-14 1,-3 1,-7 1,-11 -1,-8 -2,-17 -2,-26 -1,-11 -2,-22 -3,-34 0,-7 0,-14 0,-22 0,-2 -1,-4 -1,-6 0,-11 0,-24 9,-33 9,-10 24,-10 36,-4 16,8 23,23 28,39 2,9 3,19 4,28 1,1 1,2 1,4 2,15 7,29 12,44 6,14 10,29 11,44 2,32 -5,63 -15,92z"/>
  <path class="fil2" d="M1323 1514c-5,4 -12,4 -17,0 -1,-1 -2,-2 -4,-3 -28,-20 -64,-25 -97,-19 -73,12 -127,68 -178,118 -31,30 -62,61 -93,91 -7,8 -15,15 -22,23 -9,8 -17,16 -25,24 -15,15 -30,30 -46,43 -11,9 -25,-4 -15,-15 17,-20 36,-38 55,-56 2,-2 4,-4 6,-6 8,-8 16,-16 25,-24 7,-8 15,-15 23,-23 32,-32 64,-64 97,-95 20,-21 42,-41 66,-58 3,-3 7,-5 10,-7l0 0c5,-3 9,-6 14,-9 54,-33 127,-47 182,-14 7,4 13,9 19,14 4,4 4,12 0,16z"/>
  <path class="fil2" d="M1659 1669c-2,6 -5,12 -8,18 -1,2 -1,4 -2,6 -8,16 -18,33 -32,45 -17,15 -38,20 -60,18 -34,-2 -84,-10 -99,-44 -19,11 -42,11 -64,8 -26,-4 -54,-11 -73,-30 -19,-19 -26,-46 -27,-72 -2,-30 3,-61 6,-91 1,-5 2,-11 2,-16 1,-9 2,-18 2,-27 2,-17 2,-35 1,-53 0,-8 12,-9 14,-1 10,31 10,64 7,96 -2,27 -6,55 -5,83 0,20 2,45 17,61 16,16 41,21 62,25 19,4 43,6 57,-9 6,-7 17,-1 18,8 2,24 30,31 50,35 22,4 49,10 70,-2 14,-9 24,-23 31,-38 2,-4 4,-8 6,-11 1,-4 3,-7 4,-11 8,1 16,2 23,2z"/>
  <path class="fil2" d="M820 1392c-2,1 -4,2 -7,1 -34,-11 -68,-34 -87,-65 -17,-29 -24,-65 -12,-97 2,-5 5,-11 8,-18 5,-10 8,-20 4,-29 -2,-4 -5,-4 -8,-3 -3,0 -6,2 -9,3 -6,3 -11,7 -16,11 -8,7 -14,15 -18,24 -3,6 -6,12 -7,18 -4,13 -5,27 -3,41 2,17 9,34 17,49 8,16 19,28 31,41 5,5 0,16 -8,13 -20,-7 -33,-29 -42,-47 -11,-19 -17,-39 -20,-61 -2,-25 4,-51 17,-72 3,-4 5,-8 8,-11 3,-4 7,-7 10,-11 10,-8 23,-17 37,-20 3,0 6,-1 9,0 9,0 15,5 19,11 5,9 6,21 5,31 0,0 0,1 -1,1 -3,18 -14,34 -17,53l0 0c0,0 0,0 0,0 -2,17 2,35 9,50 17,33 48,51 80,65 1,1 2,1 3,2 10,4 6,17 -2,20z"/>
  <path class="fil2" d="M662 1392c-20,-17 -36,-41 -38,-68 -2,-13 0,-26 7,-37 3,-4 7,-8 11,-11 5,-4 11,-6 13,-12 1,-2 2,-6 -1,-7 -12,-10 -30,2 -38,12 -11,14 -17,31 -16,49 1,34 20,69 47,90 5,3 11,4 15,0 4,-4 5,-12 0,-16z"/>
  <path class="fil2" d="M632 1452c-14,15 -28,-11 -34,-21 -9,-14 -16,-29 -19,-45 -2,-13 -1,-28 4,-40 1,-3 3,-7 5,-11 1,-2 3,-4 5,-7 5,-6 11,-11 19,-8 2,0 5,3 5,6 0,0 0,1 0,1 -1,2 -2,5 -3,7 -1,1 -3,3 -4,5 -2,4 -5,8 -7,12 -3,9 -4,18 -3,27 2,11 6,22 11,32 3,5 6,11 9,16 1,2 3,5 4,7 0,0 1,1 2,2 8,1 12,11 6,17z"/>
  <path class="fil2" d="M673 1526c-15,-3 -30,-13 -43,-21 -12,-8 -25,-16 -33,-29 -8,-13 -11,-30 -12,-45 -1,-15 3,-29 8,-44 2,-7 -6,-10 -10,-6 -15,11 -18,31 -18,49 0,18 4,38 12,55 9,15 23,27 38,37 16,10 33,21 53,24 13,2 19,-17 5,-20z"/>
  <path class="fil2" d="M1189 1750c-53,51 -108,99 -167,144 -55,42 -114,85 -182,103 -33,8 -68,10 -101,3 -16,-4 -32,-10 -45,-19 -12,-10 -21,-24 -26,-38 -13,-33 -16,-69 -16,-104 1,-35 5,-70 12,-105 8,-38 20,-76 35,-111 4,-9 9,-18 13,-27 4,-9 6,-19 1,-28 -8,-16 -25,-29 -39,-39 -9,-6 -20,7 -12,15 7,5 13,12 18,18 3,3 5,6 7,9 2,2 6,6 6,9 0,3 -4,8 -5,11 -2,4 -4,8 -6,12 -4,8 -8,17 -11,25 -14,34 -25,69 -32,105 -7,35 -12,71 -12,107 -1,37 2,75 16,110 6,16 14,31 27,43 13,12 28,20 44,26 34,11 71,12 105,7 73,-11 136,-53 194,-96 67,-51 131,-106 192,-164 10,-10 -6,-26 -16,-16z"/>
  <path class="fil2" d="M887 1748c0,-11 0,-23 0,-34 0,-11 0,-22 0,-34 -2,-62 -8,-125 -14,-187 -1,-13 20,-16 22,-3 11,62 15,126 16,189 1,4 1,7 1,11 0,11 0,22 0,34 -9,8 -17,16 -25,24z"/>
  <path class="fil2" d="M1905 2080c1,5 -7,12 -11,6 -3,-3 -6,-6 -8,-10 -3,-4 -5,-8 -6,-11 -4,-7 -8,-15 -11,-22 -8,-15 -15,-31 -23,-46 -26,-55 -54,-108 -82,-162 -15,-26 -29,-52 -44,-78 -8,-13 -16,-27 -23,-40 -7,-12 -18,-25 -20,-40 0,-6 8,-10 13,-7 8,5 12,13 17,20 4,7 8,14 13,20 9,15 18,30 26,44 31,52 60,105 88,159 13,27 26,54 39,81 6,14 12,28 18,43 3,7 6,14 8,21 2,3 3,7 4,10 1,4 1,8 2,12z"/>
  <path class="fil2" d="M1081 1265c-4,1 -9,1 -13,1 -4,1 -9,1 -13,1 0,10 1,19 3,28 1,0 3,0 4,-1 8,0 15,-1 22,-1 -3,-9 -4,-18 -3,-28zm-194 8c-8,0 -15,0 -22,0 3,9 4,19 5,28 7,0 14,0 21,0 -1,-9 -2,-19 -4,-28zm-144 -103c-4,-6 -10,-11 -19,-11 -3,-1 -6,0 -9,0 1,7 2,15 2,22 4,-1 7,-1 9,3 4,9 0,19 -4,29 3,14 5,28 8,42 3,-19 14,-35 17,-53 -1,-6 -1,-12 -2,-18 -1,-4 -2,-9 -2,-14zm93 102c-7,0 -14,0 -22,-1 1,2 1,4 1,6 0,8 0,15 0,22 7,0 14,1 21,1 0,-9 0,-19 0,-28zm324 -206c-7,8 -15,16 -21,25 2,7 3,15 4,22 0,3 1,6 1,9 7,-9 15,-19 23,-27 -2,-10 -4,-19 -7,-29z"/>
  <path class="fil3" d="M1161 1066c-8,8 -16,16 -22,25 -8,10 -14,21 -20,33 -2,0 -4,0 -6,0 -3,0 -6,0 -9,0 -6,1 -12,1 -17,2 -9,1 -18,4 -24,10 -1,1 -2,3 -3,4 -4,5 -5,9 -5,15 0,7 2,16 6,23 3,5 6,11 9,17 1,1 2,3 4,5 -12,20 -19,44 -19,67 0,4 0,8 0,12 -4,0 -8,0 -13,1 -50,4 -101,7 -152,10 -1,-6 -2,-11 -3,-17 -5,-16 -12,-31 -28,-39 -12,-6 -27,-6 -36,4 -9,9 -9,22 -9,33 1,2 1,4 1,6 0,6 0,11 0,17 -16,1 -33,1 -49,3 -11,-1 -21,-3 -27,-13 -6,-8 -7,-20 -9,-29 3,-19 14,-35 17,-53 1,0 1,-1 1,-1 1,-10 0,-22 -5,-31 -4,-6 -10,-11 -19,-11 -3,-1 -6,0 -9,0 1,0 -5,-90 -6,-97 -1,-9 -1,-17 1,-26 2,-11 11,-19 21,-23 6,-3 12,-4 18,-4 16,-4 33,-5 50,-8 19,-2 37,-5 56,-7 67,-8 134,-13 201,-18 16,-1 32,-3 48,-3 15,0 32,11 42,23 14,19 13,37 13,67 1,1 1,2 2,3z"/>
  <path class="fil0" d="M903 1158c-4,9 -10,15 -19,19 -16,6 -37,4 -48,-11 -9,-12 -11,-31 -5,-46 4,-4 9,-8 13,-11 8,-5 17,-8 26,-8 8,0 17,4 23,9 7,7 11,15 13,24 1,8 1,17 -3,24zm24 -18c-2,-27 -20,-53 -46,-58 -15,-2 -31,0 -44,8 -6,4 -12,9 -17,15 -3,5 -5,10 -7,15 -6,16 -5,35 3,50 12,25 42,35 68,28 26,-8 44,-31 43,-58z"/>
  <path class="fil0" d="M1063 1136c-1,1 -2,3 -3,4 -4,5 -5,9 -5,15 -1,0 -1,-1 -1,-1 -6,-2 -12,-4 -17,-7 -10,-5 -20,-12 -28,-20 -4,4 -8,7 -12,11 2,9 4,19 7,29 5,12 -16,18 -20,5 -8,-28 -13,-57 -15,-87 0,-3 2,-7 5,-8 0,0 0,0 1,0 2,-1 4,-1 6,-1 4,1 7,5 7,9 1,11 2,21 4,31 5,-4 10,-8 14,-12 5,-4 9,-8 14,-12 4,-4 9,-9 14,-13 4,-2 10,-1 13,3 3,4 2,8 -1,12 -4,5 -9,8 -14,12 -3,3 -6,6 -9,9 0,0 1,0 1,1 0,0 0,0 1,0 0,0 0,1 1,1 2,2 4,3 6,5 5,3 10,5 15,8 1,0 2,1 3,1 1,1 2,1 2,1 0,0 0,0 1,0 0,0 0,0 0,0 2,1 5,3 7,3 1,1 2,1 3,1z"/>
  <path class="fil2" d="M1366 860c-16,15 -36,24 -54,35 -17,10 -35,20 -54,28 -17,7 -37,11 -56,9 -17,-2 -35,-9 -39,-28 -3,-13 2,-27 11,-37 1,-1 2,-2 3,-3 11,-10 26,-14 39,-21 5,-2 10,-5 14,-8 19,-12 36,-29 46,-49 14,-30 7,-62 -7,-90 -15,-28 -36,-53 -61,-74 -8,-7 -18,-14 -27,-20 -4,-2 -8,-5 -11,-7 -8,-4 -15,-9 -21,-16 -4,-5 -7,-10 -8,-17 -6,-35 40,-45 66,-42 33,4 59,24 81,48 23,26 41,57 61,86 9,12 -11,23 -19,11 -20,-29 -39,-61 -63,-87 -20,-22 -50,-42 -81,-36 -9,2 -28,7 -21,20 5,9 17,14 26,19 2,1 3,2 5,3 7,4 14,9 20,14 16,13 31,28 44,44 29,37 53,85 43,131 -2,10 -6,20 -12,31 -13,22 -33,41 -56,54 -3,2 -6,3 -9,5 -9,4 -18,8 -27,13 -7,5 -17,15 -13,24 3,6 11,7 16,8 7,0 15,0 22,-1 15,-2 30,-8 44,-15 15,-7 29,-15 44,-23 15,-8 30,-17 46,-22 7,-2 13,8 8,13z"/>
  <path class="fil2" d="M1371 610c-8,-10 -16,-19 -26,-27 -10,-8 -21,-14 -33,-18 -11,-4 -26,-7 -38,-3 -7,3 -8,15 0,16 11,2 21,2 31,6 10,4 20,9 28,16 8,6 15,14 21,22 3,5 6,9 8,14 4,5 6,11 11,15 5,5 17,2 16,-7 -2,-12 -11,-24 -18,-34z"/>
  <path class="fil2" d="M1432 624c-8,-8 -15,-15 -22,-23 -8,-8 -15,-16 -24,-23 -10,-7 -22,-12 -35,-12 -6,-1 -13,0 -20,1 -3,0 -6,1 -9,2 -3,1 -6,3 -8,4 -6,2 -6,12 1,12 3,0 6,0 9,0 3,0 6,0 9,0 6,0 12,0 18,0 10,2 19,6 26,13 15,13 25,33 43,42 10,5 19,-7 12,-16z"/>
  <path class="fil2" d="M1484 632c-1,-4 -2,-7 -4,-10 -2,-6 -5,-11 -8,-16 -7,-11 -15,-21 -25,-29 -11,-9 -24,-16 -38,-17 -7,0 -15,2 -21,4 -7,2 -14,3 -20,6 -3,2 -3,6 -1,9 9,10 24,3 35,1 12,-1 23,5 31,12 8,7 15,15 20,24 3,5 5,10 8,15 1,3 2,5 3,8 2,3 4,5 6,7 4,6 14,5 14,-4 0,-3 1,-6 0,-10z"/>
  <path class="fil2" d="M1831 1120c-13,63 -36,124 -63,182 -6,13 -12,25 -18,37 -4,8 -8,16 -12,24 -5,9 -9,17 -14,26 -4,-8 -9,-16 -14,-23 -1,0 -2,-1 -2,-2 4,-8 8,-16 12,-25 7,-13 14,-26 20,-39 3,-7 6,-13 9,-19 3,-7 6,-13 9,-20 23,-53 43,-109 52,-166 5,-33 4,-66 -10,-96 -14,-30 -34,-56 -52,-83 -20,-27 -39,-54 -62,-79 -20,-23 -42,-44 -64,-64 -1,-1 -2,-2 -3,-3 -4,-3 -8,-6 -12,-9 -7,-7 -15,-13 -23,-20 0,0 0,0 0,0 -13,-11 -27,-21 -40,-32 -25,-20 -52,-38 -77,-58 -9,-8 3,-23 13,-17 32,20 62,43 91,66l1 0c12,10 24,19 36,29 17,14 32,28 48,42 24,23 47,47 68,72 22,28 43,57 63,87 18,26 37,54 45,85 9,34 6,70 -1,105z"/>
  <path class="fil2" d="M1870 1537c-13,41 -41,76 -79,97 -21,21 -49,35 -78,42 -16,3 -31,4 -47,4 -8,0 -16,-1 -24,-2 -1,4 -3,8 -4,12 -2,3 -4,7 -6,11 -8,15 -18,31 -33,40 -21,12 -50,6 -73,2 -20,-4 -50,-12 -51,-37 -1,-9 -12,-15 -19,-8 -15,16 -40,13 -59,10 -22,-5 -48,-10 -64,-27 -16,-17 -19,-42 -19,-63 0,-29 4,-58 6,-87 4,-59 7,-54 -23,-42 -57,-35 -133,-16 -189,18 -4,2 -10,1 -14,5 0,-3 0,-6 -1,-9 -16,-29 1,-57 23,-77 18,-15 39,-31 62,-41 7,0 14,-2 19,-7 2,-1 3,-1 5,-1 5,-2 10,-7 9,-12 -3,-28 8,-55 26,-76 10,-11 21,-21 33,-29 54,-39 25,-28 25,-40 -1,-3 -9,-11 -12,-15 -6,-6 -11,-14 -15,-21 -8,-16 -13,-33 -15,-51 -2,-21 -1,-42 3,-63 2,-10 5,-20 8,-29 3,-9 5,-21 11,-29 0,0 0,0 1,-1 50,-11 102,-4 147,23 44,26 78,67 91,116 1,1 1,2 1,4 8,10 17,19 26,27 29,24 62,36 98,42 38,5 77,10 108,35 39,33 59,89 48,139 13,-2 27,1 39,6 48,23 50,91 36,134z"/>
  <path class="fil2" d="M1576 1037c0,19 -4,39 -10,57 -7,23 -16,46 -26,69 -6,12 -11,25 -16,37 -1,2 -2,4 -3,6 -1,-9 -2,-18 -4,-27 -1,-7 -2,-14 -4,-20 5,-12 10,-23 15,-35 5,-14 10,-28 15,-43 5,-16 9,-34 7,-51 -2,-17 -17,-26 -29,-35 -27,-23 -56,-46 -85,-67 -15,-11 -30,-22 -45,-33 -12,-9 -25,-16 -35,-26 -3,-3 -5,-5 -8,-7 -3,-4 -2,-9 1,-12 1,-1 3,-2 5,-1 0,0 1,0 2,0 4,1 8,3 12,5 15,8 29,18 44,28 7,5 14,10 21,15 6,4 12,8 18,12 4,4 9,7 14,11 31,22 61,45 90,70 15,13 21,28 21,47z"/>
  <path class="fil2" d="M1620 740c-10,-6 -24,-1 -35,1 -11,3 -22,7 -33,11 -21,9 -41,21 -58,36 -18,15 -33,34 -45,54 -6,11 -12,24 -14,36 -3,13 -2,26 0,39 2,8 16,6 16,-3 -2,-22 8,-46 20,-65 11,-18 25,-33 41,-46 15,-12 33,-23 51,-30 9,-4 19,-7 28,-9 10,-3 23,-3 31,-10 4,-4 3,-11 -2,-14z"/>
  <path class="fil2" d="M878 1596c-10,-5 -20,-9 -31,-13 -21,-6 -45,-9 -68,-7 -42,4 -89,23 -113,59 -4,6 4,15 10,10 16,-11 31,-22 49,-31 17,-8 36,-13 56,-15 20,-1 40,1 59,7 9,3 19,6 27,11 9,5 19,15 29,12 4,-1 7,-5 7,-9 0,-12 -15,-19 -25,-24z"/>
  <path class="fil2" d="M2095 2073c-272,0 -544,0 -815,0 -271,0 -541,0 -812,1 -76,0 -152,0 -229,1 -76,0 -153,-1 -229,3 -6,0 -6,9 0,10 68,3 136,2 204,3 68,0 136,0 204,0 136,0 272,0 408,1 270,0 541,0 811,-1 153,0 306,0 458,0 12,0 12,-18 0,-18z"/>
  <path class="fil2" d="M1230 835c0,0 -1,0 -1,0 0,0 1,0 1,0 0,0 0,0 0,0z"/>
  <path class="fil0" d="M72 462c-2,-5 -7,-9 -12,-11 -4,-4 -10,-6 -16,-6 -9,0 -19,5 -23,13 -3,6 -4,12 -2,18 1,5 4,10 8,13 3,4 8,7 13,7 4,1 7,1 11,0 3,0 5,-2 7,-3 5,-3 9,-7 12,-12 1,-2 2,-4 3,-7 0,-4 1,-8 -1,-12z"/>
  <path class="fil2" d="M287 910c-1,-106 -8,-214 -17,-320 -4,-54 -9,-109 -14,-164 -3,-30 -6,-60 -3,-90 -9,1 -17,2 -25,2 0,7 -1,14 -1,21 -1,1 -2,3 -1,5 17,151 28,304 33,456 2,76 2,151 1,227l26 -6c1,-44 1,-88 1,-131zm281 460l-44 1c-26,1 -51,2 -77,2 -1,10 -2,19 -3,26 37,-1 75,-2 112,-3 4,-9 8,-17 12,-26zm892 -410l0 -1c-8,-4 -15,-9 -20,-14 -2,-2 -4,-4 -6,-5 5,45 13,126 12,172 0,34 -3,70 -13,103 -4,14 -10,28 -22,38 -10,9 -22,15 -35,19l29 15c30,-14 46,-41 54,-73 18,-71 7,-182 1,-254z"/>
  <path class="fil2" d="M1129 1369l-74 1c-43,1 -85,2 -128,2 -2,10 -3,19 -5,26 62,-1 124,-2 186,-3 8,-9 15,-18 21,-26z"/>
  <path class="fil2" d="M1303 2092c-5,-67 -39,-103 -94,-141 -37,-26 -58,-83 -60,-142l-6 16 0 0c-12,0 -12,0 -21,3 0,41 37,138 91,157 29,11 56,78 56,107l34 0z"/>
 </g>
</svg>
